<svg id="Layer_1" data-name="Layer 1" xmlns="http://www.w3.org/2000/svg" xmlns:xlink="http://www.w3.org/1999/xlink" viewBox="0 0 399.27 237.24"><defs><style>.cls-1,.cls-11,.cls-5,.cls-7{fill:none;}.cls-2{clip-path:url(#clip-path);}.cls-3{fill:#fff;}.cls-4{clip-path:url(#clip-path-2);}.cls-5{stroke:#d9d9d9;stroke-width:0.83px;}.cls-5,.cls-7{stroke-linejoin:round;}.cls-6{clip-path:url(#clip-path-4);}.cls-7{stroke:#4472c4;stroke-linecap:round;stroke-width:2.49px;}.cls-8,.cls-9{isolation:isolate;fill:#595959;font-family:ArialMT, Arial;}.cls-8{font-size:9.92px;}.cls-9{font-size:15.48px;}.cls-10{clip-path:url(#clip-path-28);}.cls-11{stroke:red;stroke-miterlimit:8;stroke-width:3.33px;}</style><clipPath id="clip-path" transform="translate(-0.73 -0.97)"><rect class="cls-1" width="400" height="238.21"/></clipPath><clipPath id="clip-path-2" transform="translate(-0.73 -0.97)"><rect class="cls-1" x="0.48" y="0.73" width="399.27" height="237.24"/></clipPath><clipPath id="clip-path-4" transform="translate(-0.73 -0.97)"><rect class="cls-1" x="32.16" y="41.84" width="349.94" height="151.63"/></clipPath><clipPath id="clip-path-28" transform="translate(-0.73 -0.97)"><rect class="cls-1" x="0.48" y="0.73" width="399.52" height="237.48"/></clipPath></defs><g class="cls-2"><rect class="cls-3" width="399.27" height="237.24"/><g class="cls-4"><path class="cls-5" d="M32.29,174h349m-349-18.86h349m-349-18.87h349m-349-18.86h349m-349-18.87h349m-349-18.86h349m-349-18.86h349M32.29,42h349" transform="translate(-0.73 -0.97)"/></g><g class="cls-4"><path class="cls-5" d="M32.29,192.62h349" transform="translate(-0.73 -0.97)"/></g><g class="cls-6"><path class="cls-7" d="M34.34,182.59l3.88-.72h3.87l4.12-.73,3.87-.48,4.11-.48,3.87,1,3.87-.48H66l3.87-.48H74l3.87-.25,3.87-.48,4.11-1,3.87-1.69,4.11-.72,3.87-.73,3.87-.73,4.11-1.45,3.87-1.93,4.11-1.45h3.87l3.87-1.45,4.11-1.94L129.4,164l4.11-2.17,3.87-2.66,3.87-2.66,4.11-3.39,3.87-2.66,4.11-3.63,3.87-2.66,3.87-3.87,4.11-3.38,3.87-4.84,4.12-5.56,3.86-5.32,3.87-4.84L185,112l3.86-4.36,4.12-4.83,3.87-3.63,3.87-3.63,4.11-1.93L208.73,90l4.11-4.6,3.87-1.21,3.87-2.9,4.11-3.14L228.56,74l4.11-6.29L236.54,66l3.87-.25,4.11-4.59L248.39,60h4.11l3.87-1,3.87-.48h4.11l3.87-2.18,4.11.73h3.87l3.87-1.22,4.11,2.67,3.87,3.87,4.11,1.45L296,67.23l3.87,2.18L304,75.22l3.87,4.83,4.12,4.6L315.86,89,320,94.08l3.87,4.84,3.86,6.77,4.12,4.11,3.87,7.25,4.11,6,3.87,6.77,3.87,6.29,4.11,6.53,3.87,6.29,4.11,6.53,3.87,4.35,3.87,6,4.11,6,3.87,5.32,4.08,4.6" transform="translate(-0.73 -0.97)"/></g><g class="cls-4"><text class="cls-8" transform="translate(17.23 194.2)">0</text></g><g class="cls-4"><text class="cls-8" transform="translate(12.17 175.33)">50</text></g><g class="cls-4"><text class="cls-8" transform="translate(7.12 156.47)">100</text></g><g class="cls-4"><text class="cls-8" transform="translate(7.12 137.61)">150</text></g><g class="cls-4"><text class="cls-8" transform="translate(7.12 118.74)">200</text></g><g class="cls-4"><text class="cls-8" transform="translate(7.12 99.88)">250</text></g><g class="cls-4"><text class="cls-8" transform="translate(7.12 81.26)">300</text></g><g class="cls-4"><text class="cls-8" transform="translate(7.12 62.39)">350</text></g><g class="cls-4"><text class="cls-8" transform="translate(7.12 43.53)">400</text></g><g class="cls-4"><text class="cls-8" transform="translate(16.17 224.46) rotate(-45)">7/1/21</text></g><g class="cls-4"><text class="cls-8" transform="translate(43.94 224.46) rotate(-45)">7/8/21</text></g><g class="cls-4"><text class="cls-8" transform="translate(68.14 228.09) rotate(-45)">7/15/21</text></g><g class="cls-4"><text class="cls-8" transform="translate(95.9 228.09) rotate(-45)">7/22/21</text></g><g class="cls-4"><text class="cls-8" transform="translate(123.67 228.09) rotate(-45)">7/29/21</text></g><g class="cls-4"><text class="cls-8" transform="translate(155.01 224.46) rotate(-45)">8/5/21</text></g><g class="cls-4"><text class="cls-8" transform="translate(179.21 228.09) rotate(-45)">8/12/21</text></g><g class="cls-4"><text class="cls-8" transform="translate(206.98 228.09) rotate(-45)">8/19/21</text></g><g class="cls-4"><text class="cls-8" transform="translate(234.74 228.09) rotate(-45)">8/26/21</text></g><g class="cls-4"><text class="cls-8" transform="translate(266.09 224.46) rotate(-45)">9/2/21</text></g><g class="cls-4"><text class="cls-8" transform="translate(293.85 224.46) rotate(-45)">9/9/21</text></g><g class="cls-4"><text class="cls-8" transform="translate(318.05 228.09) rotate(-45)">9/16/21</text></g><g class="cls-4"><text class="cls-8" transform="translate(345.82 228.09) rotate(-45)">9/23/21</text></g><g class="cls-4"><text class="cls-9" transform="translate(59.08 22.98)">COVID Deaths Reported September 27, 2021</text></g><g class="cls-10"><path class="cls-11" d="M164.93,34.58l1.11,158" transform="translate(-0.73 -0.97)"/></g></g></svg>