<svg id="Layer_1" data-name="Layer 1" xmlns="http://www.w3.org/2000/svg" xmlns:xlink="http://www.w3.org/1999/xlink" viewBox="0 0 398.31 237"><defs><style>.cls-1,.cls-15,.cls-5,.cls-7{fill:none;}.cls-2{clip-path:url(#clip-path);}.cls-3{fill:#fff;}.cls-4{clip-path:url(#clip-path-2);}.cls-5{stroke:#d9d9d9;stroke-width:0.83px;}.cls-5,.cls-7{stroke-linejoin:round;}.cls-6{clip-path:url(#clip-path-4);}.cls-7{stroke:#4472c4;stroke-linecap:round;stroke-width:2.49px;}.cls-11,.cls-8{isolation:isolate;fill:#595959;font-family:ArialMT, Arial;}.cls-8{font-size:9.92px;}.cls-9{letter-spacing:-0.07em;}.cls-10{letter-spacing:0em;}.cls-11{font-size:15.48px;}.cls-12{letter-spacing:-0.06em;}.cls-13{letter-spacing:0em;}.cls-14{clip-path:url(#clip-path-37);}.cls-15{stroke:red;stroke-miterlimit:8;stroke-width:3.33px;}</style><clipPath id="clip-path" transform="translate(-0.97 -0.73)"><rect class="cls-1" width="400" height="238.21"/></clipPath><clipPath id="clip-path-2" transform="translate(-0.97 -0.73)"><rect class="cls-1" x="0.73" y="0.73" width="398.31" height="237"/></clipPath><clipPath id="clip-path-4" transform="translate(-0.97 -0.73)"><rect class="cls-1" x="32.41" y="41.84" width="355.26" height="150.18"/></clipPath><clipPath id="clip-path-37" transform="translate(-0.97 -0.73)"><rect class="cls-1" x="0.73" y="0.73" width="398.55" height="237.24"/></clipPath></defs><g class="cls-2"><rect class="cls-3" width="398.31" height="237"/><g class="cls-4"><path class="cls-5" d="M32.53,166.27H387.06M32.53,141.36H387.06M32.53,116.45H387.06M32.53,91.78H387.06M32.53,66.87H387.06M32.53,42H387.06" transform="translate(-0.97 -0.73)"/></g><g class="cls-4"><path class="cls-5" d="M32.53,191.17H387.06" transform="translate(-0.97 -0.73)"/></g><g class="cls-6"><path class="cls-7" d="M36.28,157.68,43.55,155H51l7.26-2.41,7.49-1.21h7.26l7.5,2.42,7.5-1.21,7.25-1.21,7.5-1.21h7.25l7.5-1.21,7.26-1.21,7.49-2.66,7.26-4.84,7.49-2.66,7.26-2.42,7.5-2.42,7.25-3.86,7.5-3.63,7.26-3.63,7.49,1.21,7.5-5.08,7.26-3.63,7.49-6.29,7.26-5.07,7.5-7.5,7.25-6.05,7.5-7.49,7.25-5.08,7.5-6,7.26-3.87,7.49-4.84,7.26-2.66,7.5-4.83,7.25-5.09,7.5,2.43,7.5,1.21,7.25,7.49,7.5,5.08,7.25,12.34,7.5,15,7.26,16.2,7.49,13.79,7.26,18.62,7.5,11.13,7.25,12.57,7.47,7.49" transform="translate(-0.97 -0.73)"/></g><g class="cls-4"><text class="cls-8" transform="translate(17.26 192.99)">0</text></g><g class="cls-4"><text class="cls-8" transform="translate(12.21 168.08)">20</text></g><g class="cls-4"><text class="cls-8" transform="translate(12.21 143.17)">40</text></g><g class="cls-4"><text class="cls-8" transform="translate(12.21 118.26)">60</text></g><g class="cls-4"><text class="cls-8" transform="translate(12.21 93.35)">80</text></g><g class="cls-4"><text class="cls-8" transform="translate(7.16 68.44)">100</text></g><g class="cls-4"><text class="cls-8" transform="translate(7.16 43.53)">120</text></g><g class="cls-4"><text class="cls-8" transform="translate(38.61 224.67) rotate(-90)">7/1/21</text></g><g class="cls-4"><text class="cls-8" transform="translate(53.38 224.67) rotate(-90)">7/3/21</text></g><g class="cls-4"><text class="cls-8" transform="translate(68.15 224.67) rotate(-90)">7/5/21</text></g><g class="cls-4"><text class="cls-8" transform="translate(82.92 224.67) rotate(-90)">7/7/21</text></g><g class="cls-4"><text class="cls-8" transform="translate(97.69 224.67) rotate(-90)">7/9/21</text></g><g class="cls-4"><text class="cls-8" transform="translate(112.46 229.75) rotate(-90)">7/<tspan class="cls-9" x="8.27" y="0">1</tspan><tspan class="cls-10" x="13.05" y="0">1/21</tspan></text></g><g class="cls-4"><text class="cls-8" transform="translate(127.23 229.75) rotate(-90)">7/13/21</text></g><g class="cls-4"><text class="cls-8" transform="translate(142 229.75) rotate(-90)">7/15/21</text></g><g class="cls-4"><text class="cls-8" transform="translate(156.77 229.75) rotate(-90)">7/17/21</text></g><g class="cls-4"><text class="cls-8" transform="translate(171.54 229.75) rotate(-90)">7/19/21</text></g><g class="cls-4"><text class="cls-8" transform="translate(186.31 229.75) rotate(-90)">7/21/21</text></g><g class="cls-4"><text class="cls-8" transform="translate(201.08 229.75) rotate(-90)">7/23/21</text></g><g class="cls-4"><text class="cls-8" transform="translate(215.85 229.75) rotate(-90)">7/25/21</text></g><g class="cls-4"><text class="cls-8" transform="translate(230.61 229.75) rotate(-90)">7/27/21</text></g><g class="cls-4"><text class="cls-8" transform="translate(245.38 229.75) rotate(-90)">7/29/21</text></g><g class="cls-4"><text class="cls-8" transform="translate(260.15 229.75) rotate(-90)">7/31/21</text></g><g class="cls-4"><text class="cls-8" transform="translate(274.92 224.67) rotate(-90)">8/2/21</text></g><g class="cls-4"><text class="cls-8" transform="translate(289.69 224.67) rotate(-90)">8/4/21</text></g><g class="cls-4"><text class="cls-8" transform="translate(304.46 224.67) rotate(-90)">8/6/21</text></g><g class="cls-4"><text class="cls-8" transform="translate(319.23 224.67) rotate(-90)">8/8/21</text></g><g class="cls-4"><text class="cls-8" transform="translate(334 229.75) rotate(-90)">8/10/21</text></g><g class="cls-4"><text class="cls-8" transform="translate(348.77 229.75) rotate(-90)">8/12/21</text></g><g class="cls-4"><text class="cls-8" transform="translate(363.54 229.75) rotate(-90)">8/14/21</text></g><g class="cls-4"><text class="cls-8" transform="translate(378.31 229.75) rotate(-90)">8/16/21</text></g><g class="cls-4"><text class="cls-11" transform="translate(71.46 23.22)">COVID Deaths Reported<tspan class="cls-12" x="170.33" y="0"> </tspan><tspan class="cls-13" x="173.78" y="0">August 18, 2021</tspan></text></g><g class="cls-14"><path class="cls-15" d="M294.8,33.62l1.11,158" transform="translate(-0.97 -0.73)"/></g></g></svg>